{"title":"Blood.Shot.2013.DVDRip.X264.AC3 - BiTo","uid":8770398,"size":1309144639,"categoryP":"video","categoryS":"movies","magnet":"?xt=urn:btih:127381d2b7b568c313c9241f975eee85a0316f12&amp;dn=Blood.Shot.2013.DVDRip.X264.AC3+-+BiTo&amp;tr=udp%3A%2F%2Ftracker.openbittorrent.com%3A80&amp;tr=udp%3A%2F%2Fopen.demonii.com%3A1337&amp;tr=udp%3A%2F%2Ftracker.coppersurfer.tk%3A6969&amp;tr=udp%3A%2F%2Fexodus.desync.com%3A6969","seeders":1,"leechers":0,"uploader":"xxxlavalxxx","files":-1,"time":1375439607,"description":" &lt;a href=&quot;\nhttp://www.imdb.com/title/tt1196124/&quot; rel=&quot;nofollow&quot; target=&quot;_NEW&quot;&gt;\nhttp://www.imdb.com/title/tt1196124/&lt;/a&gt;\n\n\n\nA notorious Middle Eastern terrorist (Dourif) is plotting a major attack on the U.S. that includes detonating a powerful nuke in the heart of Los Angeles; the only thing standing in his way... \n\n\n\nDirector:\n Dietrich Johnston \n\nWriter:\n Dietrich Johnston \n\nStars:\n Brad Dourif, John Abiskaron, Deke Anderson\n\nGenres:\n  Action |  Comedy |  Horror \n\nCountry:\n USA \n\nLanguage:\n English \n\n\n\n\n\nSource: DVDR\n Sample: Yes\n Audio: 6CH @ English\n Codec: x264\n Container: Mkv\n\n Video\n ID                                       : 1\n Format                                   : AVC\n Format/Info                              : Advanced Video Codec\n Format profile                           : &lt;a class=&quot;__cf_email__&quot; href=&quot;/cdn-cgi/l/email-protection&quot; data-cfemail=&quot;3078595758707c041e01&quot;&gt;[email&amp;#160;protected]&lt;/a&gt;&lt;script cf-hash='f9e31' type=&quot;text/javascript&quot;&gt;\n/* &lt;![CDATA[ */!function(){try{var t=&quot;currentScript&quot;in document?document.currentScript:function(){for(var t=document.getElementsByTagName(&quot;script&quot;),e=t.length;e--;)if(t[e].getAttribute(&quot;cf-hash&quot;))return t[e]}();if(t&amp;&amp;t.previousSibling){var e,r,n,i,c=t.previousSibling,a=c.getAttribute(&quot;data-cfemail&quot;);if(a){for(e=&quot;&quot;,r=parseInt(a.substr(0,2),16),n=2;a.length-n;n+=2)i=parseInt(a.substr(n,2),16)^r,e+=String.fromCharCode(i);e=document.createTextNode(e),c.parentNode.replaceChild(e,c)}}}catch(u){}}();/* ]]&gt; */&lt;/script&gt;\n Format settings, CABAC                   : Yes\n Format settings, ReFrames                : 3 frames\n Codec ID                                 : V_MPEG4/ISO/AVC\n Duration                                 : 1h 35mn\n Bit rate mode                            : Variable\n Bit rate                                 : 1 400 Kbps\n Maximum bit rate                         : 40.0 Mbps\n Width                                    : 720 pixels\n Height                                   : 400 pixels\n Display aspect ratio                     : 16:9\n Frame rate mode                          : Constant\n Frame rate                               : 23.970 fps\n Color space                              : YUV\n Chroma subsampling                       : 4:2:0\n Bit depth                                : 8 bits\n Scan type                                : Progressive\n Bits/(Pixel*Frame)                       : 0.162\n Stream size                              : 936 MiB (77%)\n Writing library                          : x264 core 133 r2334 a3ac64b\n\n\n Audio\n ID                                       : 2\n Format                                   : AC-3\n Format/Info                              : Audio Coding 3\n Mode extension                           : CM (complete main)\n Format settings, Endianness              : Big\n Codec ID                                 : A_AC3\n Duration                                 : 1h 35mn\n Bit rate mode                            : Constant\n Bit rate                                 : 384 Kbps\n Channel(s)                               : 6 channels\n Channel positions                        : Front: L C R, Side: L R, LFE\n Sampling rate                            : 48.0 KHz\n Bit depth                                : 16 bits\n Compression mode                         : Lossy\n Stream size                              : 263 MiB (22%)\n Default                                  : Yes\n Forced                                   : No\n\n\n\n\n\n\nscreens\n\n\n\n    &lt;a href=&quot;\thttp://addpix.net/viewer.php?file=01202626177887918477.jpg&quot; rel=&quot;nofollow&quot; target=&quot;_NEW&quot;&gt;\thttp://addpix.net/viewer.php?file=01202626177887918477.jpg&lt;/a&gt;\n    &lt;a href=&quot;\thttp://addpix.net/viewer.php?file=03240175862654865564.jpg&quot; rel=&quot;nofollow&quot; target=&quot;_NEW&quot;&gt;\thttp://addpix.net/viewer.php?file=03240175862654865564.jpg&lt;/a&gt;\n    &lt;a href=&quot;\thttp://addpix.net/viewer.php?file=90080656639502555023.jpg&quot; rel=&quot;nofollow&quot; target=&quot;_NEW&quot;&gt;\thttp://addpix.net/viewer.php?file=90080656639502555023.jpg&lt;/a&gt;\n    &lt;a href=&quot;\thttp://addpix.net/viewer.php?file=55343083219495125946.jpg&quot; rel=&quot;nofollow&quot; target=&quot;_NEW&quot;&gt;\thttp://addpix.net/viewer.php?file=55343083219495125946.jpg&lt;/a&gt;\n    &lt;a href=&quot;\thttp://addpix.net/viewer.php?file=23920875688000636230.jpg&quot; rel=&quot;nofollow&quot; target=&quot;_NEW&quot;&gt;\thttp://addpix.net/viewer.php?file=23920875688000636230.jpg&lt;/a&gt;\n    &lt;a href=&quot;\thttp://addpix.net/viewer.php?file=68711964473654732816.jpg&quot; rel=&quot;nofollow&quot; target=&quot;_NEW&quot;&gt;\thttp://addpix.net/viewer.php?file=68711964473654732816.jpg&lt;/a&gt;","torrent":{"xt":"urn:btih:127381d2b7b568c313c9241f975eee85a0316f12","amp;dn":"Blood.Shot.2013.DVDRip.X264.AC3+-+BiTo","amp;tr":["udp%3A%2F%2Ftracker.openbittorrent.com%3A80","udp%3A%2F%2Fopen.demonii.com%3A1337","udp%3A%2F%2Ftracker.coppersurfer.tk%3A6969","udp%3A%2F%2Fexodus.desync.com%3A6969"],"infoHash":"127381d2b7b568c313c9241f975eee85a0316f12","infoHashBuffer":{"type":"Buffer","data":[18,115,129,210,183,181,104,195,19,201,36,31,151,94,238,133,160,49,111,18]},"announce":[],"urlList":[]}}